<?xml version="1.0" encoding="UTF-8"?>
<svg width="800" height="400" viewBox="0 0 800 400" xmlns="http://www.w3.org/2000/svg">
    <!-- Background -->
    <rect width="800" height="400" fill="#f6f8fa"/>
    
    <!-- Chart Background -->
    <rect x="50" y="50" width="700" height="300" fill="#ffffff" rx="10" stroke="#e1e4e8" stroke-width="2"/>
    
    <!-- Chart Grid -->
    <g stroke="#e1e4e8" stroke-width="1">
        <!-- Horizontal Lines -->
        <line x1="70" y1="100" x2="730" y2="100"/>
        <line x1="70" y1="150" x2="730" y2="150"/>
        <line x1="70" y1="200" x2="730" y2="200"/>
        <line x1="70" y1="250" x2="730" y2="250"/>
        <line x1="70" y1="300" x2="730" y2="300"/>
        
        <!-- Vertical Lines -->
        <line x1="150" y1="50" x2="150" y2="350"/>
        <line x1="250" y1="50" x2="250" y2="350"/>
        <line x1="350" y1="50" x2="350" y2="350"/>
        <line x1="450" y1="50" x2="450" y2="350"/>
        <line x1="550" y1="50" x2="550" y2="350"/>
        <line x1="650" y1="50" x2="650" y2="350"/>
    </g>
    
    <!-- Data Points -->
    <g fill="#0366d6">
        <circle cx="150" cy="250" r="4"/>
        <circle cx="250" cy="200" r="4"/>
        <circle cx="350" cy="150" r="4"/>
        <circle cx="450" cy="100" r="4"/>
        <circle cx="550" cy="150" r="4"/>
        <circle cx="650" cy="200" r="4"/>
    </g>
    
    <!-- Line Graph -->
    <path d="M 150,250 L 250,200 L 350,150 L 450,100 L 550,150 L 650,200" 
          stroke="#0366d6" 
          stroke-width="2" 
          fill="none"/>
    
    <!-- Neural Network Visualization -->
    <g transform="translate(600, 100)">
        <!-- Nodes -->
        <circle cx="0" cy="0" r="8" fill="#2ea44f" opacity="0.8"/>
        <circle cx="30" cy="-20" r="8" fill="#2ea44f" opacity="0.8"/>
        <circle cx="30" cy="20" r="8" fill="#2ea44f" opacity="0.8"/>
        <circle cx="60" cy="0" r="8" fill="#2ea44f" opacity="0.8"/>
        
        <!-- Connections -->
        <line x1="8" y1="0" x2="22" y2="-20" stroke="#2ea44f" stroke-width="2" opacity="0.6"/>
        <line x1="8" y1="0" x2="22" y2="20" stroke="#2ea44f" stroke-width="2" opacity="0.6"/>
        <line x1="38" y1="-20" x2="52" y2="0" stroke="#2ea44f" stroke-width="2" opacity="0.6"/>
        <line x1="38" y1="20" x2="52" y2="0" stroke="#2ea44f" stroke-width="2" opacity="0.6"/>
    </g>
    
    <!-- Title -->
    <text x="400" y="40" 
          font-family="Inter, sans-serif" 
          font-size="24" 
          font-weight="600" 
          fill="#24292e" 
          text-anchor="middle">
        AI-ML-Insights Dashboard
    </text>
</svg> 