<?xml version="1.0" encoding="UTF-8"?>
<svg width="800" height="400" viewBox="0 0 800 400" xmlns="http://www.w3.org/2000/svg">
    <!-- Background -->
    <rect width="800" height="400" fill="#f6f8fa"/>
    
    <!-- Neural Network Visualization -->
    <g transform="translate(100, 50)">
        <!-- Input Layer -->
        <g class="layer input-layer">
            <circle cx="50" cy="75" r="20" fill="#0366d6" opacity="0.8"/>
            <circle cx="50" cy="175" r="20" fill="#0366d6" opacity="0.8"/>
            <circle cx="50" cy="275" r="20" fill="#0366d6" opacity="0.8"/>
            <text x="50" y="35" text-anchor="middle" fill="#24292e">Input</text>
        </g>

        <!-- Hidden Layer 1 -->
        <g class="layer hidden-layer-1">
            <circle cx="250" cy="50" r="20" fill="#2ea44f" opacity="0.8"/>
            <circle cx="250" cy="150" r="20" fill="#2ea44f" opacity="0.8"/>
            <circle cx="250" cy="250" r="20" fill="#2ea44f" opacity="0.8"/>
            <circle cx="250" cy="300" r="20" fill="#2ea44f" opacity="0.8"/>
            <text x="250" y="35" text-anchor="middle" fill="#24292e">Hidden 1</text>
        </g>

        <!-- Hidden Layer 2 -->
        <g class="layer hidden-layer-2">
            <circle cx="450" cy="75" r="20" fill="#2ea44f" opacity="0.8"/>
            <circle cx="450" cy="175" r="20" fill="#2ea44f" opacity="0.8"/>
            <circle cx="450" cy="275" r="20" fill="#2ea44f" opacity="0.8"/>
            <text x="450" y="35" text-anchor="middle" fill="#24292e">Hidden 2</text>
        </g>

        <!-- Output Layer -->
        <g class="layer output-layer">
            <circle cx="650" cy="175" r="20" fill="#0366d6" opacity="0.8"/>
            <text x="650" y="35" text-anchor="middle" fill="#24292e">Output</text>
        </g>

        <!-- Connections -->
        <g stroke="#24292e" stroke-width="1" opacity="0.2">
            <!-- Input to Hidden 1 -->
            <line x1="70" y1="75" x2="230" y2="50"/>
            <line x1="70" y1="75" x2="230" y2="150"/>
            <line x1="70" y1="75" x2="230" y2="250"/>
            <line x1="70" y1="75" x2="230" y2="300"/>
            
            <line x1="70" y1="175" x2="230" y2="50"/>
            <line x1="70" y1="175" x2="230" y2="150"/>
            <line x1="70" y1="175" x2="230" y2="250"/>
            <line x1="70" y1="175" x2="230" y2="300"/>
            
            <line x1="70" y1="275" x2="230" y2="50"/>
            <line x1="70" y1="275" x2="230" y2="150"/>
            <line x1="70" y1="275" x2="230" y2="250"/>
            <line x1="70" y1="275" x2="230" y2="300"/>

            <!-- Hidden 1 to Hidden 2 -->
            <line x1="270" y1="50" x2="430" y2="75"/>
            <line x1="270" y1="50" x2="430" y2="175"/>
            <line x1="270" y1="50" x2="430" y2="275"/>
            
            <line x1="270" y1="150" x2="430" y2="75"/>
            <line x1="270" y1="150" x2="430" y2="175"/>
            <line x1="270" y1="150" x2="430" y2="275"/>
            
            <line x1="270" y1="250" x2="430" y2="75"/>
            <line x1="270" y1="250" x2="430" y2="175"/>
            <line x1="270" y1="250" x2="430" y2="275"/>
            
            <line x1="270" y1="300" x2="430" y2="75"/>
            <line x1="270" y1="300" x2="430" y2="175"/>
            <line x1="270" y1="300" x2="430" y2="275"/>

            <!-- Hidden 2 to Output -->
            <line x1="470" y1="75" x2="630" y2="175"/>
            <line x1="470" y1="175" x2="630" y2="175"/>
            <line x1="470" y1="275" x2="630" y2="175"/>
        </g>

        <!-- Active Connections Animation -->
        <g stroke="#0366d6" stroke-width="2" opacity="0.8">
            <line x1="70" y1="175" x2="230" y2="150">
                <animate attributeName="opacity" values="0.2;0.8;0.2" dur="2s" repeatCount="indefinite"/>
            </line>
            <line x1="270" y1="150" x2="430" y2="175">
                <animate attributeName="opacity" values="0.2;0.8;0.2" dur="2s" repeatCount="indefinite" begin="0.5s"/>
            </line>
            <line x1="470" y1="175" x2="630" y2="175">
                <animate attributeName="opacity" values="0.2;0.8;0.2" dur="2s" repeatCount="indefinite" begin="1s"/>
            </line>
        </g>
    </g>
</svg> 