<?xml version="1.0" encoding="UTF-8"?>
<svg width="32" height="32" viewBox="0 0 32 32" xmlns="http://www.w3.org/2000/svg">
    <!-- Background -->
    <rect width="32" height="32" rx="6" fill="#0366d6"/>
    
    <!-- Neural Network Nodes -->
    <circle cx="8" cy="8" r="2" fill="#ffffff" opacity="0.8"/>
    <circle cx="8" cy="16" r="2" fill="#ffffff" opacity="0.8"/>
    <circle cx="8" cy="24" r="2" fill="#ffffff" opacity="0.8"/>
    
    <circle cx="16" cy="6" r="2" fill="#ffffff" opacity="0.8"/>
    <circle cx="16" cy="16" r="2" fill="#ffffff" opacity="0.8"/>
    <circle cx="16" cy="26" r="2" fill="#ffffff" opacity="0.8"/>
    
    <circle cx="24" cy="8" r="2" fill="#ffffff" opacity="0.8"/>
    <circle cx="24" cy="16" r="2" fill="#ffffff" opacity="0.8"/>
    <circle cx="24" cy="24" r="2" fill="#ffffff" opacity="0.8"/>
    
    <!-- Connections -->
    <line x1="10" y1="8" x2="14" y2="6" stroke="#ffffff" stroke-width="1" opacity="0.6"/>
    <line x1="10" y1="8" x2="14" y2="16" stroke="#ffffff" stroke-width="1" opacity="0.6"/>
    <line x1="10" y1="8" x2="14" y2="26" stroke="#ffffff" stroke-width="1" opacity="0.6"/>
    
    <line x1="10" y1="16" x2="14" y2="6" stroke="#ffffff" stroke-width="1" opacity="0.6"/>
    <line x1="10" y1="16" x2="14" y2="16" stroke="#ffffff" stroke-width="1" opacity="0.6"/>
    <line x1="10" y1="16" x2="14" y2="26" stroke="#ffffff" stroke-width="1" opacity="0.6"/>
    
    <line x1="10" y1="24" x2="14" y2="6" stroke="#ffffff" stroke-width="1" opacity="0.6"/>
    <line x1="10" y1="24" x2="14" y2="16" stroke="#ffffff" stroke-width="1" opacity="0.6"/>
    <line x1="10" y1="24" x2="14" y2="26" stroke="#ffffff" stroke-width="1" opacity="0.6"/>
    
    <line x1="18" y1="6" x2="22" y2="8" stroke="#ffffff" stroke-width="1" opacity="0.6"/>
    <line x1="18" y1="6" x2="22" y2="16" stroke="#ffffff" stroke-width="1" opacity="0.6"/>
    <line x1="18" y1="6" x2="22" y2="24" stroke="#ffffff" stroke-width="1" opacity="0.6"/>
    
    <line x1="18" y1="16" x2="22" y2="8" stroke="#ffffff" stroke-width="1" opacity="0.6"/>
    <line x1="18" y1="16" x2="22" y2="16" stroke="#ffffff" stroke-width="1" opacity="0.6"/>
    <line x1="18" y1="16" x2="22" y2="24" stroke="#ffffff" stroke-width="1" opacity="0.6"/>
    
    <line x1="18" y1="26" x2="22" y2="8" stroke="#ffffff" stroke-width="1" opacity="0.6"/>
    <line x1="18" y1="26" x2="22" y2="16" stroke="#ffffff" stroke-width="1" opacity="0.6"/>
    <line x1="18" y1="26" x2="22" y2="24" stroke="#ffffff" stroke-width="1" opacity="0.6"/>
</svg> 