<?xml version="1.0" encoding="UTF-8"?>
<svg width="800" height="600" viewBox="0 0 800 600" xmlns="http://www.w3.org/2000/svg">
    <!-- Background -->
    <rect width="800" height="600" fill="none"/>
    
    <!-- Neural Network Nodes -->
    <g id="nodes">
        <!-- Input Layer -->
        <circle cx="100" cy="150" r="20" fill="#0366d6" opacity="0.8"/>
        <circle cx="100" cy="300" r="20" fill="#0366d6" opacity="0.8"/>
        <circle cx="100" cy="450" r="20" fill="#0366d6" opacity="0.8"/>
        
        <!-- Hidden Layer 1 -->
        <circle cx="300" cy="100" r="20" fill="#2ea44f" opacity="0.8"/>
        <circle cx="300" cy="250" r="20" fill="#2ea44f" opacity="0.8"/>
        <circle cx="300" cy="400" r="20" fill="#2ea44f" opacity="0.8"/>
        <circle cx="300" cy="550" r="20" fill="#2ea44f" opacity="0.8"/>
        
        <!-- Hidden Layer 2 -->
        <circle cx="500" cy="150" r="20" fill="#2ea44f" opacity="0.8"/>
        <circle cx="500" cy="300" r="20" fill="#2ea44f" opacity="0.8"/>
        <circle cx="500" cy="450" r="20" fill="#2ea44f" opacity="0.8"/>
        
        <!-- Output Layer -->
        <circle cx="700" cy="300" r="20" fill="#0366d6" opacity="0.8"/>
    </g>
    
    <!-- Neural Network Connections -->
    <g id="connections" stroke="#ffffff" stroke-width="2" opacity="0.3">
        <!-- Input Layer to Hidden Layer 1 -->
        <line x1="120" y1="150" x2="280" y2="100"/>
        <line x1="120" y1="150" x2="280" y2="250"/>
        <line x1="120" y1="150" x2="280" y2="400"/>
        <line x1="120" y1="150" x2="280" y2="550"/>
        
        <line x1="120" y1="300" x2="280" y2="100"/>
        <line x1="120" y1="300" x2="280" y2="250"/>
        <line x1="120" y1="300" x2="280" y2="400"/>
        <line x1="120" y1="300" x2="280" y2="550"/>
        
        <line x1="120" y1="450" x2="280" y2="100"/>
        <line x1="120" y1="450" x2="280" y2="250"/>
        <line x1="120" y1="450" x2="280" y2="400"/>
        <line x1="120" y1="450" x2="280" y2="550"/>
        
        <!-- Hidden Layer 1 to Hidden Layer 2 -->
        <line x1="320" y1="100" x2="480" y2="150"/>
        <line x1="320" y1="100" x2="480" y2="300"/>
        <line x1="320" y1="100" x2="480" y2="450"/>
        
        <line x1="320" y1="250" x2="480" y2="150"/>
        <line x1="320" y1="250" x2="480" y2="300"/>
        <line x1="320" y1="250" x2="480" y2="450"/>
        
        <line x1="320" y1="400" x2="480" y2="150"/>
        <line x1="320" y1="400" x2="480" y2="300"/>
        <line x1="320" y1="400" x2="480" y2="450"/>
        
        <line x1="320" y1="550" x2="480" y2="150"/>
        <line x1="320" y1="550" x2="480" y2="300"/>
        <line x1="320" y1="550" x2="480" y2="450"/>
        
        <!-- Hidden Layer 2 to Output Layer -->
        <line x1="520" y1="150" x2="680" y2="300"/>
        <line x1="520" y1="300" x2="680" y2="300"/>
        <line x1="520" y1="450" x2="680" y2="300"/>
    </g>
    
    <!-- Animation -->
    <style>
        @keyframes pulse {
            0% { opacity: 0.3; }
            50% { opacity: 0.8; }
            100% { opacity: 0.3; }
        }
        
        #connections line {
            animation: pulse 2s infinite;
        }
        
        #connections line:nth-child(1) { animation-delay: 0s; }
        #connections line:nth-child(2) { animation-delay: 0.1s; }
        #connections line:nth-child(3) { animation-delay: 0.2s; }
        #connections line:nth-child(4) { animation-delay: 0.3s; }
        #connections line:nth-child(5) { animation-delay: 0.4s; }
        #connections line:nth-child(6) { animation-delay: 0.5s; }
        #connections line:nth-child(7) { animation-delay: 0.6s; }
        #connections line:nth-child(8) { animation-delay: 0.7s; }
        #connections line:nth-child(9) { animation-delay: 0.8s; }
        #connections line:nth-child(10) { animation-delay: 0.9s; }
        #connections line:nth-child(11) { animation-delay: 1s; }
        #connections line:nth-child(12) { animation-delay: 1.1s; }
        #connections line:nth-child(13) { animation-delay: 1.2s; }
        #connections line:nth-child(14) { animation-delay: 1.3s; }
        #connections line:nth-child(15) { animation-delay: 1.4s; }
        #connections line:nth-child(16) { animation-delay: 1.5s; }
        #connections line:nth-child(17) { animation-delay: 1.6s; }
        #connections line:nth-child(18) { animation-delay: 1.7s; }
        #connections line:nth-child(19) { animation-delay: 1.8s; }
        #connections line:nth-child(20) { animation-delay: 1.9s; }
        #connections line:nth-child(21) { animation-delay: 2s; }
        #connections line:nth-child(22) { animation-delay: 2.1s; }
        #connections line:nth-child(23) { animation-delay: 2.2s; }
        #connections line:nth-child(24) { animation-delay: 2.3s; }
        #connections line:nth-child(25) { animation-delay: 2.4s; }
        #connections line:nth-child(26) { animation-delay: 2.5s; }
        #connections line:nth-child(27) { animation-delay: 2.6s; }
        #connections line:nth-child(28) { animation-delay: 2.7s; }
        #connections line:nth-child(29) { animation-delay: 2.8s; }
        #connections line:nth-child(30) { animation-delay: 2.9s; }
        #connections line:nth-child(31) { animation-delay: 3s; }
        #connections line:nth-child(32) { animation-delay: 3.1s; }
        #connections line:nth-child(33) { animation-delay: 3.2s; }
        #connections line:nth-child(34) { animation-delay: 3.3s; }
        #connections line:nth-child(35) { animation-delay: 3.4s; }
        #connections line:nth-child(36) { animation-delay: 3.5s; }
    </style>
</svg> 